<?xml version="1.0" encoding="UTF-8"?>
<svg xmlns="http://www.w3.org/2000/svg" xmlns:xlink="http://www.w3.org/1999/xlink" width="50px" height="50px" viewBox="0 0 50 50" version="1.1">
<g id="surface1">
<rect x="0" y="0" width="50" height="50" style="fill:rgb(16.862746%,16.862746%,16.862746%);fill-opacity:1;stroke:none;"/>
<path style=" stroke:none;fill-rule:nonzero;fill:rgb(98.823529%,38.431373%,24.705882%);fill-opacity:1;" d="M 13.898438 13.5 L 24.601562 13.5 L 24.601562 36.5 L 13.898438 36.5 Z M 13.898438 13.5 "/>
<path style=" stroke:none;fill-rule:nonzero;fill:rgb(75.294119%,99.607843%,44.313726%);fill-opacity:1;" d="M 26.5 13.5 L 31 13.5 C 31.03125 16.304688 31.066406 19.109375 31.101562 22 C 31.863281 18.851562 31.863281 18.851562 32.601562 15.699219 C 32.765625 14.972656 32.929688 14.246094 33.101562 13.5 L 37.699219 13.5 C 37.640625 13.980469 37.585938 14.414062 37.476562 14.882812 C 37.453125 14.984375 37.429688 15.089844 37.402344 15.199219 C 37.363281 15.363281 37.363281 15.363281 37.324219 15.53125 C 37.285156 15.703125 37.285156 15.703125 37.242188 15.882812 C 37.070312 16.613281 36.886719 17.347656 36.6875 18.074219 C 36.484375 18.847656 36.304688 19.628906 36.132812 20.40625 C 36.007812 20.957031 35.871094 21.5 35.722656 22.046875 C 35.695312 22.148438 35.667969 22.253906 35.636719 22.359375 C 35.585938 22.550781 35.53125 22.742188 35.472656 22.933594 L 35.402344 23.199219 C 35.367188 23.3125 35.367188 23.3125 35.335938 23.425781 C 35.242188 24.15625 35.453125 24.886719 35.636719 25.585938 C 35.65625 25.679688 35.683594 25.773438 35.707031 25.871094 C 35.785156 26.179688 35.863281 26.488281 35.945312 26.796875 L 36.109375 27.445312 C 36.25 28.019531 36.398438 28.589844 36.542969 29.15625 C 36.691406 29.734375 36.835938 30.308594 36.980469 30.886719 C 37.171875 31.632812 37.363281 32.382812 37.550781 33.132812 L 37.835938 34.242188 C 37.898438 34.492188 37.960938 34.738281 38.027344 34.988281 L 38.136719 35.425781 C 38.167969 35.546875 38.199219 35.675781 38.234375 35.800781 C 38.300781 36.097656 38.300781 36.097656 38.300781 36.402344 L 33.5 36.402344 C 33.03125 34.378906 32.566406 32.359375 32.132812 30.332031 C 31.898438 29.234375 31.652344 28.140625 31.382812 27.050781 C 31.359375 26.960938 31.335938 26.867188 31.3125 26.777344 C 31.292969 26.699219 31.273438 26.617188 31.253906 26.539062 C 31.191406 26.261719 31.148438 25.980469 31.097656 25.699219 C 31.066406 29.230469 31.03125 32.761719 31 36.402344 L 26.5 36.402344 Z M 26.5 13.5 "/>
<path style=" stroke:none;fill-rule:nonzero;fill:rgb(19.607843%,17.254902%,16.862746%);fill-opacity:1;" d="M 17.652344 17.847656 C 17.800781 17.84375 17.800781 17.84375 17.953125 17.84375 C 18.160156 17.84375 18.367188 17.847656 18.574219 17.847656 C 18.890625 17.847656 19.210938 17.847656 19.527344 17.84375 C 19.726562 17.84375 19.933594 17.847656 20.136719 17.847656 C 20.226562 17.84375 20.320312 17.84375 20.417969 17.84375 C 21.046875 17.851562 21.554688 17.96875 22.097656 18.300781 C 23.03125 19.277344 22.597656 19.734375 22.597656 21.5 L 15.402344 21.5 C 15.402344 18.898438 15.402344 18.898438 15.800781 18.300781 C 16.34375 17.855469 16.976562 17.84375 17.652344 17.847656 M 17.601562 21.96875 C 17.699219 21.96875 17.796875 21.96875 17.898438 21.96875 L 18.511719 21.96875 C 18.824219 21.96875 19.132812 21.964844 19.445312 21.964844 L 20.046875 21.964844 C 20.136719 21.964844 20.230469 21.960938 20.324219 21.960938 C 20.957031 21.964844 21.652344 22.011719 22.15625 22.429688 C 22.511719 22.824219 22.695312 23.214844 22.703125 23.738281 C 22.664062 24.394531 22.5 24.808594 22.019531 25.277344 C 21.398438 25.628906 20.761719 25.628906 20.070312 25.628906 L 19.773438 25.628906 C 19.570312 25.632812 19.363281 25.632812 19.160156 25.628906 C 18.84375 25.628906 18.53125 25.632812 18.21875 25.636719 L 17.617188 25.636719 C 17.527344 25.636719 17.429688 25.636719 17.335938 25.636719 C 16.742188 25.636719 16.292969 25.566406 15.835938 25.152344 C 15.378906 24.558594 15.347656 24.089844 15.351562 23.351562 C 15.414062 22.890625 15.574219 22.671875 15.898438 22.34375 C 16.441406 21.957031 16.960938 21.96875 17.601562 21.96875 M 17.601562 21.96875 "/>
<path style=" stroke:none;fill-rule:nonzero;fill:rgb(18.431373%,16.862746%,16.862746%);fill-opacity:1;" d="M 15.398438 26.199219 L 22.601562 26.199219 L 22.601562 27.601562 L 19.300781 27.601562 L 19.300781 28.300781 L 22.597656 28.300781 L 22.597656 29.699219 L 15.402344 29.699219 L 15.402344 28.199219 L 18 28.199219 L 18 27.601562 L 15.398438 27.601562 Z M 15.398438 26.199219 "/>
<path style=" stroke:none;fill-rule:nonzero;fill:rgb(18.039216%,16.862746%,16.862746%);fill-opacity:1;" d="M 22.601562 29.898438 L 22.601562 31.398438 C 21.609375 31.675781 20.609375 31.90625 19.601562 32.101562 C 21.085938 32.148438 21.085938 32.148438 22.601562 32.199219 L 22.601562 33.601562 L 15.398438 33.601562 L 15.398438 32.199219 C 16.191406 32.167969 16.984375 32.136719 17.800781 32.101562 C 17.007812 31.9375 16.21875 31.769531 15.402344 31.601562 L 15.402344 30.101562 C 16.175781 30.171875 16.902344 30.382812 17.652344 30.601562 C 17.796875 30.640625 17.796875 30.640625 17.949219 30.683594 C 18.03125 30.707031 18.121094 30.734375 18.210938 30.757812 C 18.839844 30.851562 19.445312 30.675781 20.050781 30.515625 C 20.117188 30.5 20.183594 30.480469 20.253906 30.460938 C 20.464844 30.40625 20.675781 30.351562 20.886719 30.292969 L 21.53125 30.125 L 22.105469 29.972656 C 22.402344 29.902344 22.402344 29.902344 22.597656 29.902344 M 22.597656 29.902344 "/>
<path style=" stroke:none;fill-rule:nonzero;fill:rgb(19.215687%,17.254902%,16.862746%);fill-opacity:1;" d="M 21.199219 14.398438 L 22.601562 14.398438 L 22.601562 17.398438 L 15.402344 17.398438 L 15.402344 14.5 L 16.800781 14.5 L 16.800781 15.898438 L 18.199219 15.898438 L 18.199219 14.5 L 19.601562 14.5 L 19.601562 15.898438 L 21.199219 15.898438 Z M 21.199219 14.398438 "/>
<path style=" stroke:none;fill-rule:nonzero;fill:rgb(18.431373%,16.862746%,16.862746%);fill-opacity:1;" d="M 15.398438 34.199219 L 22.601562 34.199219 L 22.601562 35.601562 L 15.398438 35.601562 Z M 15.398438 34.199219 "/>
<path style=" stroke:none;fill-rule:nonzero;fill:rgb(34.901962%,34.901962%,34.901962%);fill-opacity:1;" d="M 38.300781 38.101562 C 38.570312 38.320312 38.746094 38.488281 38.902344 38.800781 C 38.957031 39.367188 38.859375 39.65625 38.5 40.097656 C 38.15625 40.273438 37.777344 40.25 37.398438 40.199219 C 37.097656 39.980469 37.015625 39.855469 36.898438 39.5 C 36.84375 38.789062 36.84375 38.789062 37.089844 38.40625 C 37.449219 38.054688 37.8125 38.011719 38.300781 38.097656 M 38.300781 38.097656 "/>
<path style=" stroke:none;fill-rule:nonzero;fill:rgb(35.294119%,35.294119%,35.294119%);fill-opacity:1;" d="M 28.5 38.101562 C 29.71875 38.054688 29.71875 38.054688 30.101562 38.398438 C 30.359375 38.742188 30.34375 39.085938 30.300781 39.5 C 29.992188 40.054688 29.992188 40.054688 29.699219 40.199219 C 29.496094 40.207031 29.289062 40.210938 29.089844 40.207031 L 28.5 40.199219 Z M 28.5 38.101562 "/>
<path style=" stroke:none;fill-rule:nonzero;fill:rgb(99.607843%,36.862746%,24.313726%);fill-opacity:1;" d="M 17.214844 19.386719 L 21.023438 19.386719 C 21.199219 19.402344 21.199219 19.402344 21.300781 19.5 L 21.300781 20 L 16.699219 20 C 16.699219 19.386719 16.699219 19.386719 17.214844 19.386719 M 17.214844 19.386719 "/>
<path style=" stroke:none;fill-rule:nonzero;fill:rgb(99.215686%,36.862746%,24.313726%);fill-opacity:1;" d="M 16.976562 23.488281 L 17.484375 23.488281 C 17.578125 23.488281 17.675781 23.488281 17.773438 23.488281 L 18.070312 23.488281 C 18.382812 23.492188 18.695312 23.492188 19.007812 23.492188 L 19.640625 23.492188 L 21.199219 23.5 C 21.238281 23.664062 21.273438 23.832031 21.300781 24 C 21.199219 24.101562 21.199219 24.101562 21.023438 24.113281 L 20.515625 24.113281 C 20.421875 24.113281 20.324219 24.109375 20.226562 24.109375 L 19.929688 24.109375 C 19.621094 24.109375 19.308594 24.109375 18.992188 24.105469 L 18.359375 24.105469 L 16.800781 24.097656 C 16.761719 23.933594 16.726562 23.765625 16.699219 23.597656 C 16.800781 23.5 16.800781 23.5 16.976562 23.488281 M 16.976562 23.488281 "/>
<path style=" stroke:none;fill-rule:nonzero;fill:rgb(34.901962%,34.901962%,34.901962%);fill-opacity:1;" d="M 23.601562 38.101562 L 24 38.101562 L 24.101562 39.699219 C 24.265625 39.734375 24.429688 39.765625 24.601562 39.800781 C 24.886719 39.515625 24.84375 39.21875 24.863281 38.839844 L 24.875 38.621094 C 24.882812 38.449219 24.890625 38.273438 24.898438 38.097656 L 25.300781 38.097656 C 25.3125 38.355469 25.320312 38.613281 25.324219 38.871094 L 25.335938 39.089844 C 25.34375 39.46875 25.324219 39.660156 25.132812 39.996094 C 24.859375 40.234375 24.746094 40.261719 24.394531 40.25 C 24.308594 40.25 24.222656 40.246094 24.132812 40.246094 C 23.851562 40.191406 23.777344 40.121094 23.597656 39.902344 C 23.566406 39.699219 23.566406 39.699219 23.570312 39.476562 C 23.570312 39.398438 23.574219 39.316406 23.574219 39.234375 C 23.574219 39.152344 23.578125 39.066406 23.582031 38.980469 C 23.582031 38.898438 23.585938 38.8125 23.585938 38.722656 C 23.589844 38.515625 23.59375 38.308594 23.597656 38.097656 M 23.597656 38.097656 "/>
<path style=" stroke:none;fill-rule:nonzero;fill:rgb(35.294119%,35.294119%,35.294119%);fill-opacity:1;" d="M 15.699219 38.101562 C 15.902344 38.25 15.902344 38.25 16 38.398438 C 15.699219 38.601562 15.699219 38.601562 15.382812 38.5625 C 15.289062 38.539062 15.195312 38.523438 15.097656 38.5 L 15.097656 38.800781 C 15.15625 38.820312 15.210938 38.839844 15.265625 38.859375 L 15.488281 38.9375 L 15.703125 39.015625 C 15.898438 39.097656 15.898438 39.097656 16.101562 39.300781 C 16.082031 39.652344 16.082031 39.652344 16 40 C 15.601562 40.265625 15.265625 40.273438 14.800781 40.199219 C 14.59375 40 14.59375 40 14.5 39.800781 L 14.601562 39.597656 C 14.671875 39.632812 14.746094 39.671875 14.820312 39.707031 C 15.132812 39.808594 15.289062 39.789062 15.597656 39.699219 L 15.597656 39.5 L 15.40625 39.414062 C 15.324219 39.378906 15.242188 39.34375 15.15625 39.304688 C 15.074219 39.269531 14.992188 39.234375 14.90625 39.199219 C 14.699219 39.097656 14.699219 39.097656 14.597656 39 C 14.574219 38.65625 14.574219 38.65625 14.597656 38.300781 C 14.976562 38.050781 15.257812 38.035156 15.699219 38.097656 M 15.699219 38.097656 "/>
<path style=" stroke:none;fill-rule:nonzero;fill:rgb(33.333334%,33.333334%,33.333334%);fill-opacity:1;" d="M 18.898438 38.101562 L 20.601562 38.101562 L 20.601562 38.5 L 20 38.5 L 20 40.199219 L 19.5 40.199219 L 19.5 38.5 L 18.898438 38.5 Z M 18.898438 38.101562 "/>
<path style=" stroke:none;fill-rule:nonzero;fill:rgb(17.254902%,17.254902%,17.254902%);fill-opacity:1;" d="M 37.957031 38.417969 C 38.199219 38.5 38.199219 38.5 38.402344 38.699219 C 38.429688 38.90625 38.429688 38.90625 38.429688 39.144531 C 38.433594 39.222656 38.433594 39.300781 38.433594 39.382812 C 38.390625 39.652344 38.320312 39.742188 38.097656 39.902344 C 37.785156 39.878906 37.785156 39.878906 37.5 39.800781 C 37.382812 39.566406 37.382812 39.414062 37.375 39.15625 L 37.367188 38.921875 C 37.402344 38.699219 37.402344 38.699219 37.535156 38.519531 C 37.699219 38.398438 37.699219 38.398438 37.957031 38.417969 M 37.957031 38.417969 "/>
<path style=" stroke:none;fill-rule:nonzero;fill:rgb(16.862746%,16.862746%,16.862746%);fill-opacity:1;" d="M 28.898438 38.5 C 29.238281 38.488281 29.238281 38.488281 29.601562 38.5 C 29.800781 38.699219 29.800781 38.699219 29.824219 38.910156 C 29.828125 38.988281 29.824219 39.066406 29.824219 39.148438 C 29.824219 39.226562 29.828125 39.308594 29.824219 39.390625 C 29.800781 39.597656 29.800781 39.597656 29.597656 39.800781 C 29.238281 39.8125 29.238281 39.8125 28.902344 39.800781 Z M 28.898438 38.5 "/>
<path style=" stroke:none;fill-rule:nonzero;fill:rgb(36.078432%,36.078432%,36.078432%);fill-opacity:1;" d="M 33.398438 38.101562 L 33.800781 38.101562 L 33.800781 40.199219 L 33.398438 40.199219 Z M 33.398438 38.101562 "/>
</g>
</svg>
