<?xml version="1.0" encoding="UTF-8"?>
<svg version="1.1" xmlns="http://www.w3.org/2000/svg" width="500" height="500">
<path d="M0 0 C165 0 330 0 500 0 C500 165 500 330 500 500 C335 500 170 500 0 500 C0 335 0 170 0 0 Z " fill="#2B2B2B" transform="translate(0,0)"/>
<path d="M0 0 C35.31 0 70.62 0 107 0 C107 75.9 107 151.8 107 230 C71.69 230 36.38 230 0 230 C0 154.1 0 78.2 0 0 Z " fill="#FC623F" transform="translate(139,135)"/>
<path d="M0 0 C14.85 0 29.7 0 45 0 C45.33 28.05 45.66 56.1 46 85 C53.66092081 53.53556282 53.66092081 53.53556282 61 22 C62.65 14.74 64.3 7.48 66 0 C81.18 0 96.36 0 112 0 C111.39911559 4.80707528 110.84059892 9.15374175 109.765625 13.80078125 C109.52392578 14.85007813 109.28222656 15.899375 109.03320312 16.98046875 C108.64551758 18.62982422 108.64551758 18.62982422 108.25 20.3125 C107.8468457 22.045 107.8468457 22.045 107.43554688 23.8125 C105.71107572 31.15882863 103.86227826 38.46039273 101.89331055 45.74438477 C99.82620135 53.47126024 98.07122656 61.26534097 96.31616211 69.06811523 C95.0678553 74.56478982 93.75056452 80.02329457 92.25 85.45703125 C91.96761475 86.48538086 91.68522949 87.51373047 91.39428711 88.57324219 C90.85713213 90.50365769 90.30677249 92.43046971 89.74047852 94.35253906 C89.49740967 95.22749023 89.25434082 96.10244141 89.00390625 97.00390625 C88.67628296 98.13034546 88.67628296 98.13034546 88.34204102 99.27954102 C87.42945638 106.53787835 89.5436826 113.87041947 91.3449707 120.85571289 C91.58253082 121.79692993 91.82009094 122.73814697 92.06484985 123.70788574 C92.84616894 126.79760822 93.63592608 129.88510598 94.42578125 132.97265625 C94.97580714 135.14093276 95.52529247 137.30934645 96.07426453 139.47789001 C97.51908385 145.17927916 98.97103415 150.87882829 100.42456055 156.57800293 C101.89071131 162.33154616 103.35044817 168.08671538 104.81054688 173.84179688 C106.71231094 181.33621151 108.61617131 188.83008234 110.52464581 196.3227911 C111.46809898 200.02914942 112.40883533 203.73619501 113.34952164 207.44325638 C113.97977185 209.92049205 114.61479187 212.3964647 115.25057983 214.87228394 C115.62186304 216.32945281 115.9930167 217.78665471 116.36401367 219.24389648 C116.6827092 220.48743393 117.00140472 221.73097137 117.32975769 223.01219177 C118 226 118 226 118 229 C102.16 229 86.32 229 70 229 C65.29759982 208.79437422 60.64913828 188.59347271 56.31735229 168.30603027 C53.97352122 157.34010882 51.50356643 146.41916731 48.8137207 135.53173828 C48.58773193 134.61505371 48.36174316 133.69836914 48.12890625 132.75390625 C47.93369385 131.97345947 47.73848145 131.1930127 47.53735352 130.38891602 C46.91347673 127.61534296 46.46736552 124.80419315 46 122 C45.67 157.31 45.34 192.62 45 229 C30.15 229 15.3 229 0 229 C0 153.43 0 77.86 0 0 Z " fill="#C0FE71" transform="translate(265,135)"/>
<path d="M0 0 C1.48253014 -0.00574036 1.48253014 -0.00574036 2.99501038 -0.01159668 C5.07505315 -0.01430583 7.15513057 -0.00701489 9.23510742 0.00976562 C12.39775525 0.03116609 15.55812571 0.00994111 18.72070312 -0.015625 C20.75130704 -0.0129811 22.78190955 -0.00785484 24.8125 0 C25.74714584 -0.00809692 26.68179169 -0.01619385 27.64476013 -0.02453613 C33.94610408 0.06429063 39.03741714 1.24113074 44.47265625 4.53125 C53.78476558 14.3089648 49.47265625 18.85065513 49.47265625 36.53125 C25.71265625 36.53125 1.95265625 36.53125 -22.52734375 36.53125 C-22.52734375 10.53125 -22.52734375 10.53125 -18.52734375 4.53125 C-13.06228267 0.07943394 -6.76175276 -0.0584511 0 0 Z " fill="#322C2B" transform="translate(176.52734375,178.46875)"/>
<path d="M0 0 C0.97040222 -0.00428513 1.94080444 -0.00857025 2.94061279 -0.01298523 C4.99148785 -0.01871928 7.04238324 -0.01923561 9.09326172 -0.01489258 C12.20966926 -0.01174371 15.32511673 -0.03516511 18.44140625 -0.06054688 C20.44010298 -0.06282126 22.43880224 -0.06352272 24.4375 -0.0625 C25.35968323 -0.07170975 26.28186646 -0.08091949 27.23199463 -0.09040833 C33.55175716 -0.0458842 40.49818751 0.43022214 45.57574463 4.61112976 C49.08246423 8.52429016 50.94691061 12.43475574 51.015625 17.69140625 C50.62345569 24.24063381 48.98375416 28.40482896 44.171875 33.05078125 C37.97490483 36.59190706 31.61828094 36.60837849 24.66796875 36.6015625 C23.6932814 36.60584763 22.71859406 36.61013275 21.71437073 36.61454773 C19.66285984 36.62026756 17.61132869 36.62080868 15.55981445 36.61645508 C12.42819656 36.61328764 9.29751747 36.63680977 6.16601562 36.66210938 C4.16666785 36.66438192 2.16731755 36.66508607 0.16796875 36.6640625 C-0.76342422 36.67327225 -1.6948172 36.68248199 -2.6544342 36.69197083 C-8.587984 36.64987105 -13.09089337 35.96846996 -17.66015625 31.80078125 C-22.25040197 25.90561618 -22.53402061 21.170992 -22.49609375 13.8359375 C-21.86625544 9.20176129 -20.27597364 7.00178424 -17.03515625 3.75390625 C-11.624484 -0.13926604 -6.42855996 -0.00629814 0 0 Z " fill="#322C2B" transform="translate(176.015625,219.69921875)"/>
<path d="M0 0 C23.76 0 47.52 0 72 0 C72 4.62 72 9.24 72 14 C61.11 14 50.22 14 39 14 C39 16.31 39 18.62 39 21 C49.89 21 60.78 21 72 21 C72 25.62 72 30.24 72 35 C48.24 35 24.48 35 0 35 C0 30.05 0 25.1 0 20 C8.58 20 17.16 20 26 20 C26 18.02 26 16.04 26 14 C17.42 14 8.84 14 0 14 C0 9.38 0 4.76 0 0 Z " fill="#2F2B2B" transform="translate(154,262)"/>
<path d="M0 0 C0 4.95 0 9.9 0 15 C-9.96743373 17.75291027 -19.84224457 20.06518944 -30 22 C-15.15 22.495 -15.15 22.495 0 23 C0 27.62 0 32.24 0 37 C-23.76 37 -47.52 37 -72 37 C-72 32.38 -72 27.76 -72 23 C-64.08 22.67 -56.16 22.34 -48 22 C-55.92 20.35 -63.84 18.7 -72 17 C-72 12.05 -72 7.1 -72 2 C-64.2172029 2.7226883 -56.97421127 4.81929632 -49.48828125 7.00390625 C-48.02455078 7.40802734 -48.02455078 7.40802734 -46.53125 7.8203125 C-45.66048828 8.07055176 -44.78972656 8.32079102 -43.89257812 8.57861328 C-37.62412639 9.49179253 -31.54351784 7.75292744 -25.5078125 6.15234375 C-24.83579803 5.97619034 -24.16378357 5.80003693 -23.47140503 5.61854553 C-21.35463169 5.06301386 -19.23973494 4.50073665 -17.125 3.9375 C-14.98860698 3.37165885 -12.85184519 2.80731112 -10.71432495 2.2457428 C-8.79062787 1.73990691 -6.86817946 1.22932936 -4.94580078 0.71850586 C-2 0 -2 0 0 0 Z " fill="#2E2B2B" transform="translate(226,299)"/>
<path d="M0 0 C4.62 0 9.24 0 14 0 C14 9.9 14 19.8 14 30 C-9.76 30 -33.52 30 -58 30 C-58 20.43 -58 10.86 -58 1 C-53.38 1 -48.76 1 -44 1 C-44 5.62 -44 10.24 -44 15 C-39.38 15 -34.76 15 -30 15 C-30 10.38 -30 5.76 -30 1 C-25.38 1 -20.76 1 -16 1 C-16 5.62 -16 10.24 -16 15 C-10.72 15 -5.44 15 0 15 C0 10.05 0 5.1 0 0 Z " fill="#312C2B" transform="translate(212,144)"/>
<path d="M0 0 C23.76 0 47.52 0 72 0 C72 4.62 72 9.24 72 14 C48.24 14 24.48 14 0 14 C0 9.38 0 4.76 0 0 Z " fill="#2F2B2B" transform="translate(154,342)"/>
<path d="M0 0 C2.69105198 2.17574416 4.45532928 3.91065856 6 7 C6.54724071 12.69130337 5.59333707 15.56117185 2 20 C-1.45031261 21.72515631 -5.22716304 21.49677924 -9 21 C-12.03215675 18.80168636 -12.81654398 17.55036806 -14 14 C-14.57279236 6.8973747 -14.57279236 6.8973747 -12.125 3.0625 C-8.52738076 -0.42930691 -4.87276617 -0.8588017 0 0 Z " fill="#595959" transform="translate(383,381)"/>
<path d="M0 0 C12.19073231 -0.44062888 12.19073231 -0.44062888 16 3 C18.57073939 6.42765252 18.43037452 9.83971296 18 14 C14.92307692 19.53846154 14.92307692 19.53846154 12 21 C9.95944995 21.07065617 7.91665743 21.08421976 5.875 21.0625 C2.966875 21.0315625 2.966875 21.0315625 0 21 C0 14.07 0 7.14 0 0 Z " fill="#5A5A5A" transform="translate(285,381)"/>
<path d="M0 0 C0.87760986 -0.00315216 1.75521973 -0.00630432 2.65942383 -0.009552 C3.61357178 -0.00752777 4.56771973 -0.00550354 5.55078125 -0.00341797 C6.52362061 -0.00437469 7.49645996 -0.00533142 8.4987793 -0.00631714 C10.56005925 -0.00699905 12.62134133 -0.00514399 14.68261719 -0.00097656 C17.84965813 0.00437153 21.01655725 -0.00092119 24.18359375 -0.00732422 C26.1809899 -0.00666344 28.17838596 -0.00538228 30.17578125 -0.00341797 C31.1299292 -0.0054422 32.08407715 -0.00746643 33.06713867 -0.009552 C34.38355347 -0.00482376 34.38355347 -0.00482376 35.7265625 0 C36.50298096 0.00079559 37.27939941 0.00159119 38.0793457 0.00241089 C39.86328125 0.12939453 39.86328125 0.12939453 40.86328125 1.12939453 C40.86328125 2.77939453 40.86328125 4.42939453 40.86328125 6.12939453 C25.68328125 6.12939453 10.50328125 6.12939453 -5.13671875 6.12939453 C-5.13671875 0.00526358 -5.13671875 0.00526358 0 0 Z " fill="#FE5E3E" transform="translate(172.13671875,193.87060546875)"/>
<path d="M0 0 C0.77943466 0.00222061 1.55886932 0.00444122 2.36192322 0.00672913 C3.68317955 0.00684242 3.68317955 0.00684242 5.03112793 0.00695801 C5.98841293 0.01211929 6.94569794 0.01728058 7.93199158 0.02259827 C9.39480812 0.02472069 9.39480812 0.02472069 10.88717651 0.02688599 C14.01542675 0.03250319 17.14360656 0.04505859 20.27183533 0.05775452 C22.38706867 0.0627673 24.50230313 0.06733059 26.61753845 0.07142639 C31.81482829 0.0824782 37.01207678 0.09923305 42.20933533 0.12025452 C42.591523 1.77640109 42.92328634 3.44482476 43.20933533 5.12025452 C42.20933533 6.12025452 42.20933533 6.12025452 40.41867065 6.24050903 C39.63923599 6.23828842 38.85980133 6.23606781 38.05674744 6.23377991 C37.17590988 6.23370438 36.29507233 6.23362885 35.38754272 6.23355103 C34.43025772 6.22838974 33.47297272 6.22322845 32.48667908 6.21791077 C31.51146805 6.21649582 30.53625702 6.21508087 29.53149414 6.21362305 C26.4032439 6.20800584 23.27506409 6.19545044 20.14683533 6.18275452 C18.03160198 6.17774173 15.91636752 6.17317844 13.8011322 6.16908264 C8.60384237 6.15803083 3.40659388 6.14127598 -1.79066467 6.12025452 C-2.17285234 4.46410794 -2.50461569 2.79568427 -2.79066467 1.12025452 C-1.79066467 0.12025452 -1.79066467 0.12025452 0 0 Z " fill="#FD5E3E" transform="translate(169.79066467285156,234.87974548339844)"/>
<path d="M0 0 C1.32 0 2.64 0 4 0 C4.33 5.28 4.66 10.56 5 16 C6.65 16.33 8.3 16.66 10 17 C12.84614024 14.15385976 12.45579076 11.19630858 12.625 7.375 C12.68300781 6.31539063 12.68300781 6.31539063 12.7421875 5.234375 C12.83647724 3.49001476 12.91932891 1.74504309 13 0 C14.32 0 15.64 0 17 0 C17.10845031 2.56364483 17.18749744 5.12266279 17.25 7.6875 C17.30027344 8.7693457 17.30027344 8.7693457 17.3515625 9.87304688 C17.4207238 13.65962788 17.21606802 15.62001832 15.30078125 18.98828125 C12.60091238 21.34894758 11.47279681 21.62797455 7.9375 21.5 C7.08027344 21.4896875 6.22304687 21.479375 5.33984375 21.46875 C2.52921156 20.90568512 1.75913117 20.224581 0 18 C-0.34057617 16.00708008 -0.34057617 16.00708008 -0.29296875 13.76953125 C-0.28330078 12.96708984 -0.27363281 12.16464844 -0.26367188 11.33789062 C-0.23853516 10.50451172 -0.21339844 9.67113281 -0.1875 8.8125 C-0.17396484 7.96751953 -0.16042969 7.12253906 -0.14648438 6.25195312 C-0.11115799 4.16769616 -0.05735139 2.08376723 0 0 Z " fill="#595959" transform="translate(236,381)"/>
<path d="M0 0 C2 1.5 2 1.5 3 3 C0 5 0 5 -3.1875 4.625 C-4.115625 4.41875 -5.04375 4.2125 -6 4 C-6 4.99 -6 5.98 -6 7 C-5.44570312 7.19335938 -4.89140625 7.38671875 -4.3203125 7.5859375 C-3.23363281 7.97652344 -3.23363281 7.97652344 -2.125 8.375 C-1.40570313 8.63023437 -0.68640625 8.88546875 0.0546875 9.1484375 C2 10 2 10 4 12 C3.8125 15.5 3.8125 15.5 3 19 C-0.97500337 21.65000225 -4.32120751 21.74930382 -9 21 C-11.0625 19 -11.0625 19 -12 17 C-11.67 16.34 -11.34 15.68 -11 15 C-10.278125 15.350625 -9.55625 15.70125 -8.8125 16.0625 C-5.6877295 17.10409017 -4.11838004 16.89096572 -1 16 C-1 15.34 -1 14.68 -1 14 C-1.63808594 13.72285156 -2.27617187 13.44570313 -2.93359375 13.16015625 C-3.75988281 12.79792969 -4.58617187 12.43570312 -5.4375 12.0625 C-6.26121094 11.70285156 -7.08492187 11.34320313 -7.93359375 10.97265625 C-10 10 -10 10 -11 9 C-11.25 5.5625 -11.25 5.5625 -11 2 C-7.22364747 -0.51756835 -4.43634442 -0.63772451 0 0 Z " fill="#5A5A5A" transform="translate(157,381)"/>
<path d="M0 0 C5.61 0 11.22 0 17 0 C17 1.32 17 2.64 17 4 C15.02 4 13.04 4 11 4 C11 9.61 11 15.22 11 21 C9.35 21 7.7 21 6 21 C6 15.39 6 9.78 6 4 C4.02 4 2.04 4 0 4 C0 2.68 0 1.36 0 0 Z " fill="#555555" transform="translate(189,381)"/>
<path d="M0 0 C2.4375 0.8125 2.4375 0.8125 4.4375 2.8125 C4.73828125 4.87109375 4.73828125 4.87109375 4.75 7.25 C4.76675781 8.03246094 4.78351563 8.81492187 4.80078125 9.62109375 C4.3524936 12.32528054 3.64823089 13.22530859 1.4375 14.8125 C-1.6875 14.625 -1.6875 14.625 -4.5625 13.8125 C-5.72593227 11.48563547 -5.76145988 9.96528587 -5.8125 7.375 C-5.85117187 6.20130859 -5.85117187 6.20130859 -5.890625 5.00390625 C-5.5625 2.8125 -5.5625 2.8125 -4.20703125 1.015625 C-2.5625 -0.1875 -2.5625 -0.1875 0 0 Z " fill="#2C2C2C" transform="translate(379.5625,384.1875)"/>
<path d="M0 0 C3.375 -0.125 3.375 -0.125 7 0 C9 2 9 2 9.265625 4.09375 C9.26046875 4.8878125 9.2553125 5.681875 9.25 6.5 C9.25515625 7.2940625 9.2603125 8.088125 9.265625 8.90625 C9 11 9 11 7 13 C3.375 13.125 3.375 13.125 0 13 C0 8.71 0 4.42 0 0 Z " fill="#2B2B2B" transform="translate(289,385)"/>
<path d="M0 0 C1.32 0 2.64 0 4 0 C4 6.93 4 13.86 4 21 C2.68 21 1.36 21 0 21 C0 14.07 0 7.14 0 0 Z " fill="#5C5C5C" transform="translate(334,381)"/>
</svg>
